<?xml version="1.0" encoding="utf-8"?>
<!-- Generator: Adobe Illustrator 22.1.0, SVG Export Plug-In . SVG Version: 6.00 Build 0)  -->
<svg version="1.1" id="Layer_1" xmlns="http://www.w3.org/2000/svg" xmlns:xlink="http://www.w3.org/1999/xlink" x="0px" y="0px"
	 viewBox="0 0 9 11" style="enable-background:new 0 0 9 11;" xml:space="preserve">
<style type="text/css">
	.st0{fill:#FFFFFF;}
</style>
<title>arrow-point-to-right</title>
<desc>Created with Sketch.</desc>
<g id="Page-1">
	<g id="Dashboard-_x28_Overview_x29_" transform="translate(-926.000000, -883.000000)">
		<g id="Group-8" transform="translate(48.000000, 862.000000)">
			<g id="Full-List-Button" transform="translate(767.000000, 9.000000)">
				
					<g id="arrow-point-to-right" transform="translate(114.000000, 17.500000) scale(-1, 1) rotate(-180.000000) translate(-114.000000, -17.500000) translate(111.000000, 12.000000)">
					<path id="Shape" class="st0" d="M5.8,6l-4.5,4.7c-0.3,0.3-0.8,0.3-1,0c-0.3-0.3-0.3-0.8,0-1.1l4-4.2l-4-4.2
						c-0.3-0.3-0.3-0.8,0-1.1c0.3-0.3,0.8-0.3,1,0L5.8,5C5.9,5.1,6,5.3,6,5.5C6,5.7,5.9,5.9,5.8,6z"/>
				</g>
			</g>
		</g>
	</g>
	<path class="st0" d="M8.2,11L8.2,11c-0.4,0-0.8-0.3-0.8-0.8V0.8C7.5,0.3,7.8,0,8.2,0h0C8.7,0,9,0.3,9,0.8v9.5C9,10.7,8.7,11,8.2,11
		z"/>
</g>
</svg>
