<?xml version="1.0" encoding="UTF-8"?>
<svg width="16px" height="12px" viewBox="0 0 16 12" version="1.1" xmlns="http://www.w3.org/2000/svg" xmlns:xlink="http://www.w3.org/1999/xlink">
    <!-- Generator: Sketch 49.3 (51167) - http://www.bohemiancoding.com/sketch -->
    <title>logout (2)</title>
    <desc>Created with Sketch.</desc>
    <defs></defs>
    <g id="Page-1" stroke="none" stroke-width="1" fill="none" fill-rule="evenodd">
        <g id="Species-Search" transform="translate(-983.000000, -135.000000)" fill="#FFFFFF" fill-rule="nonzero">
            <g id="logout-(2)" transform="translate(983.000000, 135.000000)">
                <path d="M2.56067134,6.74999062 L11.2499937,6.74999062 C11.6641972,6.74999062 12,6.41418923 12,5.9999875 C12,5.58578577 11.6641972,5.24998437 11.2499937,5.24998437 L2.56067134,5.24998437 L3.53037942,4.28033033 C3.82328186,3.98747911 3.82328186,3.51257714 3.53037942,3.21967592 C3.23757698,2.92677469 2.76267302,2.92677469 2.46972058,3.21967592 L0.219851832,5.46953529 C0.202451687,5.48688536 0.18605155,5.50503544 0.17045142,5.52403552 C0.166651389,5.52868554 0.163401362,5.53368556 0.159701331,5.53843558 C0.148251235,5.55298564 0.137001142,5.5675857 0.126701056,5.58298576 C0.123701031,5.58748578 0.12125101,5.5922358 0.118300986,5.59678582 C0.1080009,5.61288589 0.0979008158,5.62913595 0.08880074,5.64608603 C0.0870507254,5.64943604 0.0856007133,5.65298605 0.0838506988,5.65633607 C0.07440062,5.67468614 0.0653005442,5.69328622 0.0573504779,5.7124863 C0.0563504696,5.71483631 0.0556504638,5.71733632 0.0547004558,5.71973633 C0.0465503879,5.73993642 0.039000325,5.7603865 0.0326002717,5.78143659 C0.0317502646,5.7840866 0.0313002608,5.78683661 0.0305502546,5.78953662 C0.0245002042,5.81018671 0.0189501579,5.8310368 0.0147001225,5.85238688 C0.0134501121,5.85873691 0.0129001075,5.86528694 0.0117500979,5.87168697 C0.00865007208,5.88938704 0.00555004625,5.90708711 0.00380003167,5.92513719 C0.00125001042,5.94988729 0,5.9748874 0,5.9999875 C0,6.0250876 0.00125001042,6.05008771 0.00380003167,6.07488781 C0.00555004625,6.09318789 0.00875007292,6.11103796 0.0118000983,6.12888804 C0.0129001075,6.13508806 0.0134501121,6.14143809 0.0147001225,6.14758811 C0.0190001583,6.1691382 0.0245002042,6.19018829 0.030600255,6.21103838 C0.0313502613,6.21348839 0.031800265,6.2160884 0.0325502713,6.21853841 C0.039000325,6.2396885 0.0465503879,6.26033858 0.0548004567,6.28073867 C0.0557004642,6.28293868 0.0563504696,6.28528869 0.0573004775,6.2874887 C0.0653005442,6.30683878 0.0744506204,6.32553886 0.0840007,6.34398893 C0.0856507138,6.34723895 0.0870507254,6.35063896 0.0887507396,6.35388897 C0.0979508163,6.37093905 0.108100901,6.38733911 0.118550988,6.40358918 C0.121351011,6.4079892 0.123751031,6.41263922 0.126651055,6.41693924 C0.137001142,6.4323893 0.148351236,6.44708936 0.159751331,6.46168942 C0.163401362,6.46638944 0.166651389,6.47133946 0.17040142,6.47593948 C0.18605155,6.49488956 0.202451687,6.51308964 0.219801832,6.53043971 L2.46967058,8.78029908 C2.6161218,8.92679969 2.8080734,9 3.000025,9 C3.1919766,9 3.3839282,8.92679969 3.53032942,8.78029908 C3.82323186,8.48739786 3.82323186,8.01254589 3.53032942,7.71964467 L2.56067134,6.74999062 Z" id="XMLID_4_"></path>
                <path d="M10.0581984,0 C8.07548325,0 6.23077953,0.993243739 5.12354084,2.65684876 C4.89981713,2.99303184 4.98833811,3.44877385 5.32126031,3.67473778 C5.65423093,3.90065281 6.10550393,3.81136258 6.3293245,3.4750817 C7.16615773,2.21763474 8.56012112,1.46693181 10.0581984,1.46693181 C12.5334446,1.46698071 14.5472486,3.50046047 14.5472486,6 C14.5472486,8.49953953 12.5334446,10.5330193 10.0581984,10.5330193 C8.5645278,10.5330193 7.17284039,9.78569042 6.33537763,8.53396468 C6.11073384,8.19827059 5.65931556,8.11005615 5.32682919,8.33680247 C4.99443967,8.56359769 4.90698403,9.01953529 5.1315794,9.35518048 C6.23959289,11.0113039 8.08129426,12 10.0581984,12 C13.3344917,12 16,9.30843269 16,6 C16,2.69156731 13.3344917,0 10.0581984,0 Z" id="XMLID_5_"></path>
            </g>
        </g>
    </g>
</svg>