<?xml version="1.0" encoding="UTF-8"?>
<svg width="20px" height="20px" viewBox="0 0 20 20" version="1.1" xmlns="http://www.w3.org/2000/svg" xmlns:xlink="http://www.w3.org/1999/xlink">
    <!-- Generator: Sketch 49.3 (51167) - http://www.bohemiancoding.com/sketch -->
    <title>Group 4</title>
    <desc>Created with Sketch.</desc>
    <defs></defs>
    <g id="Page-1" stroke="none" stroke-width="1" fill="none" fill-rule="evenodd">
        <g id="Manage-users" transform="translate(-709.000000, -276.000000)">
            <g id="Group-3" transform="translate(709.000000, 276.000000)">
                <g id="Group-4">
                    <g id="Group" fill="#384F67">
                        <circle id="Oval-3" cx="10" cy="10" r="10"></circle>
                    </g>
                    <g id="cancel-music-(1)" transform="translate(6.000000, 6.000000)" fill="#FFFFFF" fill-rule="nonzero">
                        <path d="M4.95078815,4.00001878 L7.80308218,1.1477214 C8.06563927,0.885164004 8.06563927,0.459475449 7.80308218,0.196955611 C7.54052509,-0.0656017879 7.1148746,-0.0656017879 6.85231751,0.196955611 L3.99998591,3.04929055 L1.14765432,0.196918049 C0.885097232,-0.0656393498 0.459446738,-0.0656393498 0.196889647,0.196918049 C-0.0656298823,0.459475449 -0.0656298823,0.885164004 0.196889647,1.14768384 L3.04922124,3.99998122 L0.196889647,6.85231616 C-0.0656298823,7.11487356 -0.0656298823,7.54056211 0.196889647,7.80308195 C0.459446738,8.06563935 0.885097232,8.06563935 1.14765432,7.80308195 L3.99998591,4.95074701 L6.85231751,7.80308195 C7.11483703,8.06563935 7.54052509,8.06563935 7.80308218,7.80308195 C8.06563927,7.54052455 8.06563927,7.11487356 7.80308218,6.85231616 L4.95078815,4.00001878 Z" id="Shape"></path>
                    </g>
                </g>
            </g>
        </g>
    </g>
</svg>