<?xml version="1.0" encoding="UTF-8"?>
<svg width="37px" height="37px" viewBox="0 0 37 37" version="1.1" xmlns="http://www.w3.org/2000/svg" xmlns:xlink="http://www.w3.org/1999/xlink">
    <!-- Generator: Sketch 49.3 (51167) - http://www.bohemiancoding.com/sketch -->
    <title>Download Icon</title>
    <desc>Created with Sketch.</desc>
    <defs></defs>
    <g id="Page-1" stroke="none" stroke-width="1" fill="none" fill-rule="evenodd">
        <g id="Dashboard-(Overview)" transform="translate(-177.000000, -400.000000)">
            <g id="Download-Icon" transform="translate(177.000000, 400.000000)">
                <circle id="Oval-3" fill="#6285a7" cx="18.5" cy="18.5" r="18.5"></circle>
                <g id="Group-2" transform="translate(12.000000, 11.000000)" fill="#FFFFFF" fill-rule="nonzero" stroke="#FFFFFF">
                    <g id="001-arrows">
                        <path d="M12.4587755,9.04347826 C12.1589796,9.04347826 11.917551,9.26906941 11.917551,9.54919908 L11.917551,11.9885584 L1.08244898,11.9885584 L1.08244898,9.54919908 C1.08244898,9.26906941 0.841020408,9.04347826 0.54122449,9.04347826 C0.241428571,9.04347826 0,9.26906941 0,9.54919908 L0,12.4942792 C0,12.7744088 0.241428571,13 0.54122449,13 L12.4587755,13 C12.7585714,13 13,12.7744088 13,12.4942792 L13,9.54919908 C13,9.26906941 12.7585714,9.04347826 12.4587755,9.04347826 Z" id="Shape"></path>
                        <path d="M6.10058891,9.43386134 C6.40742564,9.74519218 6.78363416,9.57342344 6.89836441,9.43386134 L10.0280991,6.04679647 C10.2335463,5.82403388 10.2202055,5.47781251 9.99874946,5.27115325 C9.77729338,5.06449398 9.43310262,5.07791341 9.23032356,5.300676 L7.04511241,7.66518008 L7.04511241,0.547512863 C7.04511241,0.244233679 6.80231117,0 6.50081074,0 C6.1993103,0 5.95650906,0.244233679 5.95650906,0.547512863 L5.95650906,7.66786396 L3.77129791,5.30335989 C3.56585071,5.0805973 3.22165994,5.06986175 3.00020387,5.27383713 C2.77874779,5.4804964 2.76807521,5.82671777 2.97085427,6.04948036 L6.10058891,9.43386134 Z" id="Shape"></path>
                    </g>
                </g>
            </g>
        </g>
    </g>
</svg>