<?xml version="1.0" encoding="UTF-8"?>
<svg width="6px" height="11px" viewBox="0 0 6 11" version="1.1" xmlns="http://www.w3.org/2000/svg" xmlns:xlink="http://www.w3.org/1999/xlink">
    <!-- Generator: Sketch 49.3 (51167) - http://www.bohemiancoding.com/sketch -->
    <title>arrow-point-to-right</title>
    <desc>Created with Sketch.</desc>
    <defs></defs>
    <g id="Page-1" stroke="none" stroke-width="1" fill="none" fill-rule="evenodd">
        <g id="Dashboard-(Overview)" transform="translate(-926.000000, -883.000000)" fill="#FFFFFF" fill-rule="nonzero">
            <g id="Group-8" transform="translate(48.000000, 862.000000)">
                <g id="Full-List-Button" transform="translate(767.000000, 9.000000)">
                    <g id="arrow-point-to-right" transform="translate(114.000000, 17.500000) scale(-1, 1) rotate(-180.000000) translate(-114.000000, -17.500000) translate(111.000000, 12.000000)">
                        <path d="M5.78412817,6.04455656 L1.25827398,10.774235 C0.970374986,11.075255 0.503596117,11.075255 0.215836891,10.774235 C-0.0719456302,10.4734827 -0.0719456302,9.98569151 0.215836891,9.6849636 L4.22051912,5.49992088 L0.215953364,1.31502422 C-0.0718291568,1.01415025 -0.0718291568,0.526407722 0.215953364,0.225655476 C0.503735885,-0.0752184921 0.97049146,-0.0752184921 1.25839045,0.225655476 L5.78424464,4.95540692 C5.9281359,5.10585608 6,5.30282762 6,5.49989654 C6,5.69706283 5.92799613,5.89418044 5.78412817,6.04455656 Z" id="Shape"></path>
                    </g>
                </g>
            </g>
        </g>
    </g>
</svg>