<?xml version="1.0" encoding="UTF-8"?>
<svg width="17px" height="17px" viewBox="0 0 17 17" version="1.1" xmlns="http://www.w3.org/2000/svg" xmlns:xlink="http://www.w3.org/1999/xlink">
    <!-- Generator: Sketch 49.3 (51167) - http://www.bohemiancoding.com/sketch -->
    <title>Group 2</title>
    <desc>Created with Sketch.</desc>
    <defs></defs>
    <g id="Page-1" stroke="none" stroke-width="1" fill="none" fill-rule="evenodd">
        <g id="Dashboard-(Overview)" transform="translate(-954.000000, -697.000000)" fill="#FFFFFF" fill-rule="nonzero" stroke="#FFFFFF">
            <g id="DropDown" transform="translate(805.000000, 630.000000)">
                <g id="Group-2" transform="translate(150.000000, 68.000000)">
                    <g id="001-arrows">
                        <path d="M14.3755102,10.4347826 C14.0295918,10.4347826 13.7510204,10.6950801 13.7510204,11.0183066 L13.7510204,13.8329519 L1.24897959,13.8329519 L1.24897959,11.0183066 C1.24897959,10.6950801 0.970408163,10.4347826 0.624489796,10.4347826 C0.278571429,10.4347826 0,10.6950801 0,11.0183066 L0,14.416476 C0,14.7397025 0.278571429,15 0.624489796,15 L14.3755102,15 C14.7214286,15 15,14.7397025 15,14.416476 L15,11.0183066 C15,10.6950801 14.7214286,10.4347826 14.3755102,10.4347826 Z" id="Shape"></path>
                        <path d="M7.03914105,10.8852246 C7.39318343,11.2444525 7.82727018,11.0462578 7.95965124,10.8852246 L11.5708835,6.97707285 C11.807938,6.7200391 11.7925448,6.3205529 11.5370186,6.0820999 C11.2814924,5.8436469 10.8843492,5.85913086 10.6503733,6.11616461 L8.12897586,8.84443855 L8.12897586,0.631745611 C8.12897586,0.281808091 7.84882059,0 7.50093546,0 C7.15305034,0 6.87289507,0.281808091 6.87289507,0.631745611 L6.87289507,8.84753534 L4.35149759,6.11926141 C4.11444312,5.86222765 3.71729993,5.84984048 3.46177369,6.08519669 C3.20624745,6.32364969 3.19393293,6.72313589 3.42790877,6.98016964 L7.03914105,10.8852246 Z" id="Shape"></path>
                    </g>
                </g>
            </g>
        </g>
    </g>
</svg>